<svg xmlns="http://www.w3.org/2000/svg" xmlns:xlink="http://www.w3.org/1999/xlink" viewBox="0 0 24 30" version="1.1" x="0px" y="0px"><title>icon/cube-root-solid</title><desc>Created with Sketch.</desc><g stroke="none" stroke-width="1" fill="none" fill-rule="evenodd"><path d="M17.6182,6 L22.0002,6 L22.0002,4 L16.3822,4 L9.0002,18.764 L4.0002,8.764 L0.6582,15.447 L2.4472,16.342 L4.0002,13.236 L9.0002,23.236 L17.6182,6 Z M12.0002,7.2 C12.0002,8.771 10.4632,10 8.5002,10 C7.0242,10 5.7412,9.288 5.2312,8.187 L7.0462,7.347 C7.1922,7.663 7.7522,8 8.5002,8 C9.4162,8 10.0002,7.526 10.0002,7.2 C10.0002,6.874 9.4162,6.4 8.5002,6.4 L8.5002,4.4 C8.9202,4.4 9.2192,4.293 9.3842,4.2 C9.2192,4.106 8.9202,4 8.5002,4 C7.8832,4 7.5322,4.227 7.4742,4.31 L5.8342,3.167 C6.3352,2.447 7.3562,2 8.5002,2 C10.2102,2 11.5002,2.946 11.5002,4.2 C11.5002,4.616 11.3472,4.993 11.0962,5.317 C11.6542,5.813 12.0002,6.466 12.0002,7.2 L12.0002,7.2 Z" fill="#000000"/></g><text x="0" y="39" fill="#000000" font-size="5px" font-weight="bold" font-family="'Helvetica Neue', Helvetica, Arial-Unicode, Arial, Sans-serif">Created by Travis Avery</text><text x="0" y="44" fill="#000000" font-size="5px" font-weight="bold" font-family="'Helvetica Neue', Helvetica, Arial-Unicode, Arial, Sans-serif">from the Noun Project</text></svg>